Coordinates
version=1
nRows=49
nColumns=12
inDegrees=yes

Units are S.I. units (second, meters, Newtons, ...)
Angles are in degrees

endheader
time	SC_y	SC_z	SC_x	AC_y	AC_z	AC_x	GH_y	GH_z	GH_yy	EL_x	PS_y
       0.0              -35.17          31.49          40.29          39.07          5.771          2.238         -155.6          62.32          168.1          125.8          140.2
    0.0437              -35.17          31.49           40.3          39.07          5.768          2.236         -155.6           62.3          168.1          125.8          140.2
    0.0874              -35.17          31.48          40.31          39.07          5.764          2.235         -155.5          62.29          168.0          125.8          140.2
    0.1311              -35.17          31.48          40.31          39.06          5.761          2.233         -155.5          62.28          168.0          125.8          140.2
    0.1748              -35.17          31.48          40.32          39.06          5.757          2.231         -155.4          62.27          167.9          125.8          140.2
    0.2185              -35.18          31.47          40.33          39.06          5.753          2.229         -155.4          62.25          167.8          125.8          140.2
    0.2622              -35.18          31.47          40.34          39.06          5.748          2.227         -155.3          62.23          167.8          125.7          140.2
    0.3059              -35.18          31.46          40.35          39.06          5.744          2.224         -155.3          62.22          167.7          125.7          140.2
    0.3496              -35.18          31.46          40.36          39.06          5.739          2.222         -155.2           62.2          167.6          125.7          140.1
    0.3933              -35.18          31.45          40.37          39.06          5.733          2.219         -155.2          62.18          167.6          125.7          140.1
     0.437              -35.19          31.44          40.38          39.05          5.727          2.216         -155.1          62.16          167.5          125.7          140.1
    0.4807              -35.19          31.44          40.39          39.05          5.721          2.213         -155.0          62.14          167.4          125.7          140.1
    0.5244              -35.19          31.43           40.4          39.05          5.714           2.21         -154.9          62.11          167.3          125.7          140.1
    0.5681              -35.19          31.42          40.42          39.05          5.707          2.206         -154.8          62.09          167.2          125.7          140.1
    0.6118               -35.2          31.41          40.43          39.05          5.699          2.202         -154.8          62.06          167.1          125.7          140.0
    0.6555               -35.2          31.41          40.45          39.04          5.691          2.198         -154.7          62.03          166.9          125.6          140.0
    0.6992               -35.2           31.4          40.47          39.04          5.681          2.194         -154.5          61.99          166.8          125.6          140.0
    0.7429              -35.21          31.38          40.48          39.04          5.671          2.189         -154.4          61.96          166.7          125.6          140.0
    0.7866              -35.21          31.37          40.51          39.03           5.66          2.183         -154.3          61.92          166.5          125.6          139.9
    0.8303              -35.21          31.36          40.53          39.03          5.648          2.177         -154.1          61.87          166.3          125.6          139.9
     0.874              -35.22          31.35          40.55          39.03          5.635          2.171         -154.0          61.83          166.1          125.5          139.9
    0.9178              -35.22          31.33          40.58          39.02           5.62          2.163         -153.8          61.77          165.9          125.5          139.9
    0.9615              -35.23          31.31          40.61          39.02          5.604          2.155         -153.6          61.72          165.7          125.5          139.8
     1.005              -35.24          31.29          40.65          39.01          5.586          2.147         -153.4          61.65          165.4          125.4          139.8
     1.049              -35.24          31.27          40.68          39.01          5.567          2.137         -153.2          61.58          165.1          125.4          139.7
     1.093              -35.25          31.25          40.73           39.0          5.544          2.126         -152.9           61.5          164.8          125.4          139.7
     1.136              -35.26          31.22          40.77          38.99           5.52          2.113         -152.6          61.41          164.4          125.3          139.6
      1.18              -35.27          31.19          40.83          38.98          5.492            2.1         -152.3          61.31          164.0          125.3          139.5
     1.224              -35.28          31.16          40.89          38.97           5.46          2.084         -151.9           61.2          163.6          125.2          139.5
     1.267               -35.3          31.12          40.96          38.96          5.424          2.066         -151.5          61.07          163.0          125.1          139.4
     1.311              -35.31          31.08          41.03          38.95          5.384          2.046         -151.0          60.92          162.5          125.1          139.3
     1.355              -35.33          31.02          41.12          38.94          5.337          2.023         -150.4          60.75          161.8          125.0          139.2
     1.398              -35.35          30.97          41.23          38.92          5.283          1.996         -149.8          60.56          161.0          124.9          139.0
     1.442              -35.37           30.9          41.35           38.9           5.22          1.965         -149.0          60.33          160.1          124.8          138.9
     1.486               -35.4          30.82          41.49          38.88          5.146          1.928         -148.2          60.07          159.0          124.6          138.7
      1.53              -35.43          30.73          41.65          38.85          5.059          1.886         -147.1          59.76          157.7          124.5          138.5
     1.573              -35.47          30.62          41.85          38.82          4.956          1.834         -145.9          59.38          156.2          124.3          138.2
     1.617              -35.51          30.48          42.09          38.78          4.833          1.773         -144.4          58.94          154.4          124.0          137.9
     1.661              -35.57          30.32          42.37          38.74          4.683          1.699         -142.7           58.4          152.2          123.7          137.5
     1.704              -35.63          30.13          42.72          38.68            4.5          1.609         -140.5          57.74          149.6          123.4          137.1
     1.748              -35.72          29.89          43.15          38.61          4.275          1.497         -137.8          56.93          146.3          123.0          136.5
     1.792              -35.82          29.58          43.69          38.53          3.994          1.358         -134.5          55.92          142.2          122.5          135.8
     1.836              -35.95           29.2          44.37          38.42           3.64          1.183         -130.2          54.65          137.0          121.8          135.0
     1.879              -36.11          28.72          45.23          38.28           3.19         0.9598         -124.9          53.03          130.5          120.9          133.9
     1.923              -36.33           28.1          46.33          38.11          2.613         0.6745         -118.0          50.95          122.0          119.9          132.4
     1.967               -36.6          27.31          47.75          37.88          1.874         0.3084         -109.2          48.29          111.3          118.5          130.6
      2.01              -36.94          26.29          49.55           37.6         0.9295        -0.1593         -97.97          44.89          97.49          116.7          128.3
     2.054              -37.38          25.02          51.82          37.24        -0.2582        -0.7473         -83.83          40.62          80.16          114.5          125.4
     2.098              -37.91          23.46          54.59           36.8         -1.705         -1.464          -66.6          35.41          59.06          111.8          121.8
